<svg xmlns="http://www.w3.org/2000/svg" width="12" height="19" viewBox="0 0 12 19">
  <path
    id="icon"
    class="main-news__icon"
    d="M801.016,2187.38a7.978,7.978,0,0,1-4.142-1.4c-0.149-.11-0.3-0.22-0.437-0.34a1.08,1.08,0,0,1-.162-1.59,1.21,1.21,0,0,1,1.567-.34,3.643,3.643,0,0,1,.343.19,7.082,7.082,0,0,0,7.53.07,2.145,2.145,0,0,1,.733-0.36,1.183,1.183,0,0,1,1.318.5,1.027,1.027,0,0,1-.08,1.4,6.093,6.093,0,0,1-2.189,1.34,10.839,10.839,0,0,1-2.486.53c0.128,0.13.188,0.2,0.268,0.27,1.151,1.1,2.307,2.2,3.454,3.3a1.05,1.05,0,0,1,.257,1.28,1.375,1.375,0,0,1-1.278.76,1.256,1.256,0,0,1-.81-0.4c-0.868-.83-1.753-1.64-2.6-2.49-0.248-.25-0.367-0.2-0.585.02-0.874.85-1.762,1.69-2.655,2.53a1.173,1.173,0,0,1-1.344.23,1.294,1.294,0,0,1-.785-1.19,1.162,1.162,0,0,1,.421-0.8c1.139-1.08,2.275-2.17,3.411-3.25C800.837,2187.57,800.907,2187.49,801.016,2187.38Zm0.944-3.76a4.816,4.816,0,1,1,5.089-4.75A4.941,4.941,0,0,1,801.96,2183.62Zm2.513-4.82a2.478,2.478,0,1,0-2.459,2.36A2.4,2.4,0,0,0,804.473,2178.8Z"
    transform="translate(-796 -2174)"
  />
</svg>
